<svg width="98" height="97" viewBox="0 0 98 97" fill="none" xmlns="http://www.w3.org/2000/svg">
<path d="M84.2723 35.3783C84.2723 35.3889 84.2776 35.3942 84.2882 35.3942C84.4278 35.555 84.5763 35.7212 84.7266 35.8821C84.8468 36.0235 84.9829 36.1596 85.1137 36.2904C85.3259 36.5026 85.5256 36.7129 85.7218 36.9304C85.812 37.0311 85.9021 37.1319 85.9888 37.2362L86.0082 37.2556C86.0241 37.2609 86.0383 37.2751 86.0436 37.291C86.1585 37.4271 86.2645 37.5721 86.3741 37.7135C86.459 37.8196 86.5456 37.9239 86.6252 38.0352C91.4353 44.2525 91.384 53.0047 86.4537 59.1618C86.4378 59.1777 86.4342 59.1919 86.4183 59.2078C86.3034 59.3545 86.1815 59.4941 86.0559 59.6303C86.0559 59.6303 86.0506 59.6356 86.0453 59.6409C85.7978 59.9379 85.5327 60.2348 85.2551 60.5124L85.1844 60.5831C84.9087 60.8589 84.6258 61.1099 84.3288 61.3574C84.3182 61.3574 84.3182 61.368 84.3094 61.3768C78.6508 66.2505 70.5685 66.8092 64.3513 63.0668C64.1692 62.9554 63.9836 62.8405 63.798 62.7256C63.7008 62.6602 63.5965 62.5948 63.4975 62.5241C63.1722 62.2978 62.854 62.0715 62.5464 61.8241C62.405 61.7145 62.26 61.5978 62.1186 61.4882C61.7509 61.1806 61.385 60.8536 61.0385 60.5071L36.8926 36.3611C37.2391 36.7076 37.6068 37.0364 37.9727 37.3423C38.1141 37.4625 38.2538 37.5738 38.4005 37.6781C38.5472 37.8036 38.6975 37.915 38.853 38.0211C39.0192 38.1484 39.1854 38.2615 39.3515 38.3782C39.4523 38.4471 39.5584 38.5143 39.6521 38.5797C39.8377 38.6946 40.0251 38.8113 40.2054 38.9209C46.755 42.794 55.3145 41.9384 60.9696 36.3647L61.0403 36.294C61.3213 36.0129 61.6095 35.746 61.9012 35.4932C61.9065 35.4879 61.9118 35.4826 61.9118 35.4826C68.1538 30.0361 77.3992 29.8734 83.8073 35.0053L83.8126 35.0106C83.97 35.129 84.1255 35.2528 84.2723 35.3783Z" fill="#FF2B06"/>
<path d="M61.04 60.5089C60.7288 60.1977 60.4053 59.8954 60.0695 59.6197C60.0695 59.6091 60.0642 59.6038 60.0536 59.6038C53.3343 53.8391 43.1926 54.1414 36.8251 60.5089C30.1359 67.1981 19.2906 67.1999 12.5996 60.5089C5.91393 53.8232 5.9157 42.9779 12.6049 36.2887C19.2906 29.603 30.1341 29.603 36.8198 36.2887L61.04 60.5089Z" fill="#FF2B06"/>
</svg>
