<svg width="50" height="50" viewBox="0 0 50 50" fill="none" xmlns="http://www.w3.org/2000/svg">
<path d="M35.0273 18.3625C35.0273 18.3625 34.0898 18.7375 33.0002 19.9375C31.9085 21.1396 31.2752 22.4896 31.7439 22.8479C31.9252 22.9854 32.3419 23.0125 33.0981 22.3271C33.792 21.7203 34.3379 20.9628 34.6939 20.1125C35.1814 18.925 35.0273 18.3771 35.0273 18.3625ZM40.9919 20.525C39.7814 19.9021 38.896 19.1417 37.9752 18.6708C37.096 18.2208 36.5273 18.0312 35.8169 18.1271C35.718 18.1443 35.6205 18.1687 35.5252 18.2C35.5252 18.2 35.8919 19.45 34.4356 21.5479C32.9606 23.6771 31.6231 23.6625 31.2419 23.0771C30.8439 22.4604 31.3585 21.2021 32.2169 20.0833C33.1169 18.9125 34.696 17.9417 34.696 17.9417C34.696 17.9417 34.1939 17.6333 32.9564 18.3375C31.7481 19.0167 29.671 20.6437 27.7439 23.3854C25.8148 26.1271 25.4314 27.6354 25.1564 28.8229C24.8814 30.0104 25.1314 31.2812 26.4481 31.2812C27.7648 31.2812 29.2981 29.2729 29.7314 28.575C30.5356 27.275 31.0585 25.2812 29.9648 25.5542C29.4252 25.6896 28.9898 26.2854 28.7148 26.8604C28.5414 27.2296 28.4087 27.6166 28.3189 28.0146C27.9363 28.1723 27.5768 28.3812 27.2502 28.6354C26.889 28.9061 26.5504 29.2057 26.2377 29.5312C26.2377 29.5312 26.2419 28.5812 26.9981 27.0437C27.7564 25.5083 29.1439 24.8062 29.9314 24.7396C30.6398 24.6833 31.5627 25.2854 30.7814 27.5042C30.0002 29.7229 27.6919 32.4208 25.2689 32.4542C23.0335 32.4854 21.5689 29.6312 24.6814 24.6521C28.1273 19.1458 32.1689 17.4583 33.4794 17.2708C34.7919 17.0833 35.2189 17.6604 35.2189 17.6604C36.0083 17.3362 36.8611 17.1959 37.7127 17.25C39.3169 17.3583 40.5544 18.4917 42.1919 19.2896C41.7648 19.6958 41.3585 20.1229 40.9939 20.5229M48.1898 18.6687C47.0794 19.3812 45.5439 20.0271 44.0669 19.8896C43.6939 20.275 43.2939 20.7229 42.8939 21.2104C45.4523 21.7167 47.696 20.1292 48.8877 18.7792C49.3227 18.295 49.6964 17.759 50.0002 17.1833C49.4571 17.7484 48.8495 18.2456 48.1898 18.6687ZM44.7814 25.8833C44.8007 25.8495 44.8167 25.8139 44.8294 25.7771C44.8219 25.7182 44.7944 25.6638 44.7516 25.6228C44.7087 25.5818 44.653 25.5569 44.5939 25.5521C44.3502 25.5417 44.0169 25.5875 43.146 26.5521C42.4224 27.3498 41.7996 28.2335 41.2919 29.1833C40.7919 30.0958 40.5898 30.775 40.8752 30.95C40.969 30.9986 41.0777 31.0097 41.1794 30.9812C41.3731 30.9354 41.5939 30.7521 41.9294 30.3667C42.0856 30.1833 42.2585 29.925 42.4669 29.6396C43.0439 28.8562 44.4939 26.3833 44.7814 25.8833ZM35.721 26.9333C35.8669 26.5542 36.0523 25.8062 35.6669 25.5125C35.2523 25.2 34.1981 25.9312 34.1919 26.6812C34.1856 27.45 34.9356 27.7958 35.1148 27.8458C35.2189 27.8729 35.2523 27.8667 35.3023 27.7854C35.4633 27.5124 35.6033 27.2276 35.721 26.9333ZM34.9231 28.3292C34.6613 28.2091 34.4173 28.0535 34.1981 27.8667C33.9778 27.6824 33.794 27.4584 33.6564 27.2062C33.6398 27.1812 33.6252 27.2 33.6085 27.2229C33.5939 27.2437 33.5273 27.3042 32.9648 28.1271C32.4023 28.9521 31.5398 30.6604 32.3189 30.95C32.821 31.1375 33.6544 30.2604 34.1106 29.6792C34.4207 29.2739 34.7007 28.8463 34.9481 28.4C34.9731 28.3521 34.9481 28.3396 34.9231 28.3292ZM43.7939 30.3021C43.5814 30.6417 43.3398 31.2937 44.0377 30.8875C44.8919 30.3958 46.1085 28.5479 46.1085 28.5479H46.6606C46.1577 29.32 45.5985 30.0539 44.9877 30.7437C44.1231 31.7021 43.0669 32.575 42.321 32.4875C41.4544 32.3875 41.7252 31.2458 41.7252 31.2458C41.7252 31.2458 40.4835 32.5687 39.621 32.475C38.4606 32.3458 38.8148 30.9104 38.8148 30.9104C38.8148 30.9104 37.5023 32.5229 36.6064 32.4729C35.2044 32.3896 35.5564 30.6833 35.9481 29.4812C36.1564 28.8396 36.3502 28.3354 36.3502 28.3354C36.3502 28.3354 36.2106 28.3708 35.9127 28.4146C35.7544 28.4375 35.471 28.4542 35.471 28.4542C35.471 28.4542 34.8877 29.4854 34.4189 30.1042C33.9502 30.7229 31.9648 32.8583 30.7939 32.4312C29.7148 32.0354 30.0731 30.3812 30.7023 29.0667C31.6189 27.15 34.2023 24.3937 35.6939 24.7583C37.2377 25.1333 35.7294 27.95 35.7294 27.95C35.7294 27.95 35.7294 27.9604 35.7439 27.9687C35.7752 27.9792 35.8564 27.9896 36.0419 27.9521C36.2346 27.9133 36.4235 27.8575 36.6064 27.7854C36.6064 27.7854 38.1606 24.5333 39.8752 22.4042C41.5898 20.2792 45.0106 16.6125 46.3544 17.5C46.6794 17.7187 46.5335 18.4687 46.0919 19.3792C45.8926 19.4434 45.6903 19.4977 45.4856 19.5417C45.7814 19.0042 45.9773 18.5521 46.0356 18.2354C46.2377 17.1354 43.671 19.4542 41.8377 21.9437C40.7328 23.4454 39.7511 25.0339 38.9023 26.6937C39.2329 26.491 39.5489 26.2655 39.8481 26.0187C40.6665 25.3408 41.4442 24.6152 42.1773 23.8458C42.8833 23.124 43.5449 22.3601 44.1585 21.5583C44.3538 21.5473 44.5485 21.5272 44.7419 21.4979C44.0719 22.4075 43.3411 23.2705 42.5544 24.0812C41.8252 24.8208 41.0335 25.6167 40.3439 26.1958C39.729 26.7169 39.0812 27.1977 38.4044 27.6354C38.4044 27.6354 36.8002 30.8708 37.6731 31.0771C38.1856 31.2021 39.1981 29.6396 39.1981 29.6396C39.1981 29.6396 40.521 27.625 41.3169 26.7146C42.4044 25.4792 43.3377 24.7646 44.2752 24.7521C44.8189 24.7417 45.1398 25.3208 45.1398 25.3208L45.396 24.925H46.9731C46.9731 24.925 44.0273 29.9208 43.7919 30.2979M48.1898 18.6729C47.0794 19.3833 45.5439 20.0292 44.0669 19.8917C43.6919 20.2771 43.2939 20.725 42.8919 21.2125C45.4523 21.7187 47.6939 20.1333 48.8877 18.7812C49.3229 18.2964 49.6965 17.7597 50.0002 17.1833C49.4571 17.7484 48.8495 18.2456 48.1898 18.6687M26.0439 21.1229H24.5439L23.696 22.4937H25.196L26.0439 21.1229ZM18.9398 25.8667C19.5794 24.9917 21.3398 21.9271 21.3398 21.9271C21.3324 21.8686 21.3052 21.8144 21.2628 21.7734C21.2203 21.7325 21.1652 21.7073 21.1064 21.7021C20.8627 21.6896 20.4564 21.7729 19.6481 22.7833C18.8398 23.7937 18.2148 24.5958 17.7585 25.4333C17.2585 26.3458 17.0377 26.9896 17.3273 27.1646C17.4199 27.2121 17.5269 27.2232 17.6273 27.1958C17.8148 27.15 18.0606 26.9604 18.396 26.575C18.5864 26.3455 18.7684 26.1092 18.9419 25.8667M10.8939 21.7208C10.4794 21.4083 9.4252 22.1396 9.41895 22.8875C9.4127 23.6562 10.3689 23.8917 10.4919 23.8958C10.5278 23.898 10.5637 23.8908 10.596 23.875C10.6181 23.8618 10.6355 23.8422 10.646 23.8187C10.7574 23.5977 10.8589 23.3718 10.9502 23.1417C11.096 22.7604 11.2794 22.0146 10.8939 21.7208ZM10.2689 24.3667C9.98335 24.2765 9.71034 24.1505 9.45645 23.9917C9.20928 23.8321 9.00874 23.61 8.8752 23.3479C8.86062 23.3229 8.84395 23.3417 8.82936 23.3646C8.81478 23.3875 8.73145 23.4917 8.16687 24.3187C7.60437 25.1479 6.76687 26.8396 7.5502 27.1312C8.0502 27.3187 8.89186 26.4354 9.3502 25.8562C9.69359 25.4022 10.0101 24.9285 10.2981 24.4375C10.3169 24.3875 10.2981 24.375 10.2689 24.3667ZM22.5189 24.875H23.0669C23.0669 24.875 20.3148 28.8583 18.7585 28.6729C17.8919 28.5708 18.1481 27.5 18.1481 27.5C18.1481 27.5 16.9294 28.9271 15.8085 28.6375C14.7939 28.3771 15.4502 26.6875 15.4502 26.6875C15.3335 26.7333 13.1356 29.2104 11.5898 28.6167C9.97311 27.9917 10.8127 25.9167 11.121 25.2937C11.3814 24.7667 11.6689 24.2542 11.6689 24.2542C11.6689 24.2542 11.421 24.325 11.2627 24.3604L10.8752 24.4437C10.8752 24.4437 10.1106 25.6854 9.64395 26.3062C9.1752 26.925 7.18978 29.0562 6.01895 28.6333C4.84811 28.2104 5.1377 26.5708 5.79603 25.2687C6.8627 23.1604 9.39186 20.5687 10.9169 20.9604C12.4564 21.3542 11.1814 23.8521 11.1814 23.8521C11.1814 23.8521 11.4877 23.8917 12.2231 23.3896C13.2794 22.6687 14.6731 20.7292 16.1835 20.9583C16.896 21.0646 17.5585 21.7917 16.6523 23.175C16.3627 23.6187 15.8773 24.0146 15.5064 23.6229C15.2752 23.3771 15.4773 22.9354 15.721 22.6292C15.816 22.5056 15.9396 22.4071 16.0811 22.3422C16.2227 22.2772 16.378 22.2477 16.5335 22.2562C16.5335 22.2562 16.7835 21.6875 16.1481 21.6958C15.6335 21.7062 14.3335 22.9042 13.6002 24.1125C12.9273 25.2229 11.9064 27.1146 12.9294 27.5271C13.8689 27.9062 15.6564 25.7854 16.4835 24.6729C17.3106 23.5625 19.196 21.0437 20.7794 20.9437C21.3231 20.9083 21.6481 21.4042 21.6481 21.4042L21.8314 21.1146H23.4127C23.4127 21.1146 20.4335 26.0875 20.2002 26.4625C20.0169 26.7562 19.7752 27.4208 20.4439 27.0479C21.1148 26.6771 22.5189 24.875 22.5189 24.875ZM21.6564 32.8417C20.4921 32.0346 19.0971 31.6274 17.6814 31.6812C17.2987 31.6918 16.9239 31.7924 16.5873 31.9748C16.2506 32.1572 15.9617 32.4164 15.7439 32.7312C15.1398 31.6792 13.9481 31.0333 12.1044 31.0479C9.1252 31.0812 6.16895 32.4562 3.82937 32.4542C1.58562 32.4542 -0.0518848 31.0437 0.00228185 28.5375C0.100199 24.1437 3.81478 20.1854 6.58562 18.4042C8.18353 17.3833 9.52103 17.0771 10.3939 17.175C11.0314 17.2458 11.7981 17.9833 11.3148 19.0687C10.6044 20.6542 9.62312 20.525 9.65853 19.7667C9.67937 19.2729 10.0085 18.9625 10.2544 18.7896C10.4332 18.6963 10.6319 18.6477 10.8335 18.6479C10.9752 18.5292 11.0773 17.6604 9.93978 17.9458C8.80228 18.2312 7.41895 19.3542 6.10645 20.8021C4.79395 22.2521 2.75228 24.9917 2.24812 27.8687C2.0127 29.2021 2.16687 31.6354 5.33145 31.6083C8.0127 31.5875 11.9669 29.8187 15.6002 29.8562C16.8652 29.8512 18.1077 30.1912 19.1939 30.8396C20.1335 31.4187 21.2606 32.2646 21.6606 32.8417" fill="#FCFCFC"/>
</svg>
