<svg width="50" height="50" viewBox="0 0 50 50" fill="none" xmlns="http://www.w3.org/2000/svg">
<path d="M9.05762 9.85356C9.05762 5.88927 12.2683 2.67856 16.229 2.67856H25.0005M25.0005 2.67856V17.0286M25.0005 2.67856H33.7719C37.7326 2.67856 40.9433 5.88927 40.9433 9.85356M25.0005 17.0286H16.229C12.2648 17.0286 9.05762 13.8143 9.05762 9.84999M25.0005 17.0286H33.7719C37.7362 17.0286 40.9433 13.8143 40.9433 9.84999" stroke="#FCFCFC" stroke-linecap="round" stroke-linejoin="round"/>
<path d="M40.9433 25C40.9433 23.9532 40.7371 22.9166 40.3365 21.9495C39.9359 20.9823 39.3488 20.1036 38.6086 19.3633C37.8683 18.6231 36.9896 18.036 36.0224 17.6354C35.0553 17.2348 34.0187 17.0286 32.9719 17.0286C31.9251 17.0286 30.8885 17.2348 29.9214 17.6354C28.9542 18.036 28.0755 18.6231 27.3353 19.3633C26.595 20.1036 26.0079 20.9823 25.6073 21.9495C25.2067 22.9166 25.0005 23.9532 25.0005 25C25.0005 27.1141 25.8403 29.1417 27.3353 30.6366C28.8302 32.1316 30.8577 32.9714 32.9719 32.9714C35.0861 32.9714 37.1136 32.1316 38.6086 30.6366C40.1035 29.1417 40.9433 27.1141 40.9433 25ZM9.05762 40.1464C9.05762 36.1821 12.2683 32.9714 16.229 32.9714H25.0005V39.35C25.0005 43.7536 21.429 47.3214 17.029 47.3214H16.229C12.2648 47.3214 9.05762 44.1071 9.05762 40.1464Z" stroke="#FCFCFC" stroke-linecap="round" stroke-linejoin="round"/>
<path d="M9.05762 25C9.05762 20.5964 12.6255 17.0286 17.029 17.0286H25.0005V32.9714H17.029C12.6255 32.9714 9.05762 29.4 9.05762 25Z" stroke="#FCFCFC" stroke-linecap="round" stroke-linejoin="round"/>
</svg>
