<svg width="8" height="12" viewBox="0 0 8 12" fill="none" xmlns="http://www.w3.org/2000/svg">
<path fill-rule="evenodd" clip-rule="evenodd" d="M1.20599 0.343415C0.995315 0.554354 0.87698 0.840289 0.87698 1.13841C0.87698 1.43654 0.995315 1.72248 1.20599 1.93341L5.28599 6.01341L1.20599 10.0934C1.00727 10.3067 0.899085 10.5887 0.904227 10.8802C0.909369 11.1716 1.02744 11.4497 1.23356 11.6558C1.43968 11.862 1.71776 11.98 2.00921 11.9852C2.30066 11.9903 2.58273 11.8821 2.79599 11.6834L7.67099 6.80841C7.88167 6.59748 8 6.31154 8 6.01341C8 5.71529 7.88167 5.42935 7.67099 5.21841L2.79599 0.343415C2.58505 0.13274 2.29912 0.0144043 2.00099 0.0144043C1.70286 0.0144043 1.41693 0.13274 1.20599 0.343415Z" fill="#FF2B06"/>
</svg>
